<?xml version="1.0" encoding="iso-8859-1"?>
<!-- Uploaded to: SVG Repo, www.svgrepo.com, Generator: SVG Repo Mixer Tools -->
<svg version="1.1" id="Layer_1" xmlns="http://www.w3.org/2000/svg" xmlns:xlink="http://www.w3.org/1999/xlink" 
	 viewBox="0 0 512 512" xml:space="preserve">
<rect y="408.816" style="fill:#3FA9F5;" width="512" height="88.816"/>
<g>
	<rect x="402.286" y="325.224" style="fill:#E6E6E6;" width="41.796" height="83.592"/>
	<rect x="235.102" y="325.224" style="fill:#E6E6E6;" width="41.796" height="83.592"/>
	<rect x="67.918" y="325.224" style="fill:#E6E6E6;" width="41.796" height="83.592"/>
	<rect x="235.102" y="22.204" style="fill:#E6E6E6;" width="41.796" height="261.224"/>
</g>
<polygon style="fill:#CCCCCC;" points="512,283.429 512,325.224 0,325.224 0,283.429 234.213,283.429 277.787,283.429 "/>
<path d="M512,225.089v-15.673c-88.723,0-212.177-159.432-227.265-179.374V14.367h-57.469v15.662
	c-7.099,9.335-38.048,49.216-77.997,88.696C90.097,177.2,38.481,208.109,0,208.109v15.673c10.68,0,22.009-1.931,33.959-5.762v57.571
	H0v15.673h512v-15.673h-39.184V217.5C486.701,222.55,499.774,225.089,512,225.089z M410.122,181.764v93.828h-31.347V156.043
	C389.523,165.605,399.975,174.178,410.122,181.764z M351.696,130.507c3.837,3.818,7.637,7.518,11.406,11.106v133.979h-31.347
	V109.908C338.088,116.684,344.759,123.602,351.696,130.507z M160.283,129.873c5.063-5.003,9.985-10.014,14.737-14.972v160.691
	h-31.347V145.765C149.138,140.708,154.673,135.418,160.283,129.873z M128,275.592H96.653v-91.026
	c10.14-7.264,20.592-15.531,31.347-24.796V275.592z M49.633,212.052c10.054-4.399,20.507-10.037,31.347-16.9v80.44H49.633V212.052z
	 M190.694,275.592V98.1c15.098-16.611,27.703-31.712,36.571-42.709v220.201H190.694z M269.061,275.592h-26.122V30.041h26.122
	V275.592z M284.735,55.519c7.826,9.774,18.559,22.762,31.347,37.173v182.9h-31.347V55.519z M457.143,275.592h-31.347v-82.737
	c10.828,7.216,21.28,13.225,31.347,18.023V275.592z"/>
<path d="M0,317.388v15.673h60.082v67.918H0v15.673h512V400.98h-60.082v-67.918H512v-15.673H0z M75.755,400.98v-67.918h26.122v67.918
	H75.755z M117.551,400.98v-67.918h109.714v67.918H117.551z M242.939,400.98v-67.918h26.122v67.918H242.939z M284.735,400.98v-67.918
	h109.714v67.918H284.735z M410.122,400.98v-67.918h26.122v67.918H410.122z"/>
<rect x="198.531" y="453.224" width="52.245" height="15.673"/>
<rect x="266.449" y="453.224" width="20.898" height="15.673"/>
<rect x="391.837" y="442.775" width="52.245" height="15.673"/>
<rect x="355.265" y="442.775" width="20.898" height="15.673"/>
<rect x="78.367" y="442.775" width="52.245" height="15.673"/>
<rect x="41.796" y="442.775" width="20.898" height="15.673"/>
</svg>