<?xml version="1.0" encoding="iso-8859-1"?>
<!-- Uploaded to: SVG Repo, www.svgrepo.com, Generator: SVG Repo Mixer Tools -->
<svg height="800px" width="800px" version="1.1" id="Layer_1" xmlns="http://www.w3.org/2000/svg" xmlns:xlink="http://www.w3.org/1999/xlink" 
	 viewBox="0 0 512 512" xml:space="preserve">
<g transform="translate(0 -1)">
	<polygon style="fill:#BDC3C7;" points="76.8,402.064 110.933,402.064 110.933,316.731 76.8,316.731 	"/>
	<path style="fill:#7F8C8D;" d="M128,427.667H59.733c0-18.85,15.283-34.133,34.133-34.133S128,408.817,128,427.667"/>
	<polygon style="fill:#BDC3C7;" points="238.933,402.064 273.067,402.064 273.067,316.731 238.933,316.731 	"/>
	<path style="fill:#7F8C8D;" d="M290.133,427.667h-68.267c0-18.85,15.283-34.133,34.133-34.133
		C274.85,393.533,290.133,408.817,290.133,427.667"/>
	<g>
		<path style="fill:#E64C3C;" d="M238.933,205.8c-96,0-133.76-61.278-135.322-63.889c-2.423-4.036-1.101-9.284,2.944-11.699
			c4.028-2.415,9.267-1.101,11.691,2.918c1.434,2.364,34.842,55.603,120.687,55.603c4.71,0,8.533,3.823,8.533,8.533
			S243.644,205.8,238.933,205.8"/>
		<path style="fill:#E64C3C;" d="M8.533,205.8c-4.71,0-8.533-3.823-8.533-8.533s3.823-8.533,8.533-8.533
			c27.622,0,59.733-22.366,59.733-51.2c0-4.71,3.823-8.533,8.533-8.533s8.533,3.823,8.533,8.533
			C85.333,176.607,44.791,205.8,8.533,205.8"/>
		<path style="fill:#E64C3C;" d="M8.533,325.267c-4.71,0-8.533-3.823-8.533-8.533V197.267c0-4.71,3.823-8.533,8.533-8.533
			s8.533,3.823,8.533,8.533v119.467C17.067,321.444,13.244,325.267,8.533,325.267"/>
		<path style="fill:#E64C3C;" d="M42.667,325.267c-4.71,0-8.533-3.823-8.533-8.533v-128c0-4.71,3.823-8.533,8.533-8.533
			s8.533,3.823,8.533,8.533v128C51.2,321.444,47.377,325.267,42.667,325.267"/>
	</g>
	<polygon style="fill:#BDC3C7;" points="401.067,402.064 435.2,402.064 435.2,316.731 401.067,316.731 	"/>
	<path style="fill:#7F8C8D;" d="M384,427.667h68.267c0-18.85-15.283-34.133-34.133-34.133S384,408.817,384,427.667"/>
	<g>
		<path style="fill:#E64C3C;" d="M503.467,205.8c-36.25,0-76.8-29.193-76.8-68.267c0-4.71,3.814-8.533,8.533-8.533
			c4.719,0,8.533,3.823,8.533,8.533c0,28.834,32.111,51.2,59.733,51.2c4.719,0,8.533,3.823,8.533,8.533S508.186,205.8,503.467,205.8
			"/>
		<path style="fill:#E64C3C;" d="M469.333,325.267c-4.719,0-8.533-3.823-8.533-8.533v-128c0-4.71,3.814-8.533,8.533-8.533
			c4.719,0,8.533,3.823,8.533,8.533v128C477.867,321.444,474.052,325.267,469.333,325.267"/>
		<path style="fill:#E64C3C;" d="M503.467,325.267c-4.719,0-8.533-3.823-8.533-8.533V197.267c0-4.71,3.814-8.533,8.533-8.533
			c4.719,0,8.533,3.823,8.533,8.533v119.467C512,321.444,508.186,325.267,503.467,325.267"/>
		<path style="fill:#E64C3C;" d="M273.067,205.8c-4.71,0-8.533-3.823-8.533-8.533s3.823-8.533,8.533-8.533
			c86.426,0,120.346-55.023,120.678-55.578c2.415-4.045,7.654-5.359,11.708-2.944c4.036,2.415,5.359,7.663,2.935,11.699
			C406.835,144.522,369.067,205.8,273.067,205.8"/>
		<path style="fill:#E64C3C;" d="M153.6,325.267c-4.71,0-8.533-3.823-8.533-8.533V180.2c0-4.71,3.823-8.533,8.533-8.533
			s8.533,3.823,8.533,8.533v136.533C162.133,321.444,158.31,325.267,153.6,325.267"/>
		<path style="fill:#E64C3C;" d="M196.267,325.267c-4.71,0-8.533-3.823-8.533-8.533V197.267c0-4.71,3.823-8.533,8.533-8.533
			s8.533,3.823,8.533,8.533v119.467C204.8,321.444,200.977,325.267,196.267,325.267"/>
		<path style="fill:#E64C3C;" d="M358.4,325.267c-4.71,0-8.533-3.823-8.533-8.533V180.2c0-4.71,3.823-8.533,8.533-8.533
			s8.533,3.823,8.533,8.533v136.533C366.933,321.444,363.11,325.267,358.4,325.267"/>
		<path style="fill:#E64C3C;" d="M315.733,325.267c-4.71,0-8.533-3.823-8.533-8.533V197.267c0-4.71,3.823-8.533,8.533-8.533
			c4.71,0,8.533,3.823,8.533,8.533v119.467C324.267,321.444,320.444,325.267,315.733,325.267"/>
	</g>
	<g>
		<path style="fill:#C03A2B;" d="M503.467,325.267H8.533c-4.71,0-8.533-3.823-8.533-8.533c0-4.71,3.823-8.533,8.533-8.533h494.933
			c4.719,0,8.533,3.823,8.533,8.533C512,321.444,508.186,325.267,503.467,325.267"/>
		<path style="fill:#C03A2B;" d="M110.933,316.733H76.8V103.4c0-9.429,7.637-17.067,17.067-17.067s17.067,7.637,17.067,17.067
			V316.733z"/>
		<path style="fill:#C03A2B;" d="M401.067,316.733H435.2V103.4c0-9.429-7.637-17.067-17.067-17.067
			c-9.429,0-17.067,7.637-17.067,17.067V316.733z"/>
		<path style="fill:#C03A2B;" d="M238.933,316.733h34.133V103.4c0-9.429-7.637-17.067-17.067-17.067
			c-9.429,0-17.067,7.637-17.067,17.067V316.733z"/>
	</g>
</g>
</svg>