<?xml version="1.0" ?>
<!-- Uploaded to: SVG Repo, www.svgrepo.com, Generator: SVG Repo Mixer Tools -->
<svg width="800px" height="800px" viewBox="0 0 64 64" xmlns="http://www.w3.org/2000/svg">
<defs>
<style>.cls-1{fill:#f6e782;}.cls-2{fill:#e5936b;}.cls-3{fill:#f5d96d;}.cls-4{fill:#748a95;}.cls-5{fill:#f0f4f7;}.cls-6{fill:#e17c46;}</style>
</defs>
<g data-name="Wood House" id="Wood_House">
<path class="cls-1" d="M15.14,54.75H48.86V21.93L32,11.66,15,21.4Z" id="path73528-2"/>
<path class="cls-2" d="M19.27,50.61a4.14,4.14,0,1,1-4.13-4.13A4.13,4.13,0,0,1,19.27,50.61Z" id="path72953-2"/>
<path class="cls-2" d="M19.27,42.35a4.14,4.14,0,1,1-4.13-4.13A4.13,4.13,0,0,1,19.27,42.35Z" id="path73058-2"/>
<path class="cls-2" d="M19.27,34.09A4.14,4.14,0,1,1,15.14,30,4.13,4.13,0,0,1,19.27,34.09Z" id="path73060-8"/>
<path class="cls-3" d="M45,21.33l-.2,0C42.4,22.07,42,24.8,42,25.82A4.13,4.13,0,0,0,46.08,30a4.14,4.14,0,0,0,0,8.27,4.13,4.13,0,0,0,0,8.26,4.14,4.14,0,0,0,0,8.27h2.78V22.89l-1.18-.31S46,21.25,45,21.33Z" id="path185433"/>
<path class="cls-2" d="M53,50.61a4.14,4.14,0,1,1-4.14-4.13A4.14,4.14,0,0,1,53,50.61Z" id="path73064-9"/>
<path class="cls-2" d="M53,42.35a4.14,4.14,0,1,1-4.14-4.13A4.14,4.14,0,0,1,53,42.35Z" id="path73066-7"/>
<path class="cls-2" d="M53,34.09A4.14,4.14,0,1,1,48.86,30,4.13,4.13,0,0,1,53,34.09Z" id="path73068-3"/>
<path class="cls-2" d="M18.21,23.06,14,22.15,11.06,26.5a4.13,4.13,0,1,0,7.15-3.44Z" id="path176620"/>
<path class="cls-2" d="M45.79,23.05a4.13,4.13,0,1,0,7.15,3.44l-2.47-3.91Z" id="path73070-6"/>
<path class="cls-4" d="M41.67,20.86l9.91,5.31a3,3,0,0,0,2.84-5.29l-21-11.27a3,3,0,0,0-2.84,0l-21,11.27a3,3,0,0,0,2.84,5.29L27.59,18l5.51-2.32Z" id="path76536-9"/>
<path class="cls-5" d="M32,9.25a3,3,0,0,0-1.42.36l-3,1.61V32.14a2.35,2.35,0,0,0,4.69,0V22.78a2.35,2.35,0,1,1,4.7,0,2.35,2.35,0,1,0,4.69,0V14L33.42,9.61A3,3,0,0,0,32,9.25Z" id="path76528-9"/>
<path class="cls-2" d="M26.9,38.22H37.1V54.75H26.9Z" id="rect73982-4"/>
<path class="cls-6" d="M34.08,38.22h3V54.75h-3Z" id="path176739"/>
<path d="M54.89,20l-21-11.26a4.07,4.07,0,0,0-3.78,0L9.11,20a4,4,0,0,0,1.17,7.45A5,5,0,0,0,12.12,30a5.89,5.89,0,0,0-.61.51,5.1,5.1,0,0,0,.61,7.76,4.76,4.76,0,0,0-.61.5,5.1,5.1,0,0,0,.61,7.76,5.89,5.89,0,0,0-.61.51A5.08,5.08,0,0,0,10,50.61a5.15,5.15,0,0,0,5.14,5.14H48.86A5.15,5.15,0,0,0,54,50.61h0A5.11,5.11,0,0,0,52.49,47a5.79,5.79,0,0,0-.61-.5A5.1,5.1,0,0,0,54,42.35h0a5.1,5.1,0,0,0-2.12-4.13A5.13,5.13,0,0,0,54,34.08h0A5.13,5.13,0,0,0,51.88,30a5,5,0,0,0,1.84-2.5,4,4,0,0,0,2.8-2A4,4,0,0,0,54.89,20ZM41.21,47.48h3.62a5,5,0,0,0,0,6.27H38.1V39.22h6.73a5,5,0,0,0,0,6.26H41.21a1,1,0,0,0,0,2Zm-22-10.26a5.07,5.07,0,0,0,1.1-3.14h0A5.07,5.07,0,0,0,19.17,31h7.42v1.19a3.35,3.35,0,0,0,3.35,3.34,3.25,3.25,0,0,0,2.1-.77h7.78a1,1,0,0,0,0-2H33.23a3.55,3.55,0,0,0,.05-.57v-4h2.43a1,1,0,0,0,0-2H33.28V24.06h2.95a3.34,3.34,0,0,0,6.18,0h1.64a5,5,0,0,0-.32,1.76A5.07,5.07,0,0,0,44.83,29H39.54a1,1,0,0,0,0,2h5.29a5,5,0,0,0,0,6.27Zm0,10.26H25.9v2H23.18a1,1,0,0,0,0,2H25.9v2.25H19.17a5.07,5.07,0,0,0,1.1-3.14h0A5.07,5.07,0,0,0,19.17,47.48Zm0-8.26H25.9v6.26H19.17a5.07,5.07,0,0,0,1.1-3.13h0A5,5,0,0,0,19.17,39.22ZM26.59,29H19.17a5.07,5.07,0,0,0,1.1-3.13A5,5,0,0,0,20,24.06h6.64Zm0-6.89h-4.4l4.4-2.36ZM17.9,24.37A3.11,3.11,0,0,1,15.14,29a3.1,3.1,0,0,1-2.77-1.68c.18-.07.35-.13.53-.22Zm15.59-2.31a1.35,1.35,0,0,1,2.28,0Zm12.24,3.76a3.15,3.15,0,0,1,.37-1.45l5,2.68a3.54,3.54,0,0,0,.53.23,3.13,3.13,0,0,1-5.9-1.46ZM31.05,10.49a2.06,2.06,0,0,1,1.9,0l7.72,4.15v8.14a1.35,1.35,0,1,1-2.69,0,3.35,3.35,0,1,0-6.7,0v9.36a1.35,1.35,0,0,1-2.69,0V11.81Zm-21.81,14a2,2,0,0,1,.82-2.71l16.53-8.87v4.54L12,25.29A2,2,0,0,1,9.24,24.47Zm3.68,7.4A3.13,3.13,0,1,1,12,34.08,3.12,3.12,0,0,1,12.92,31.87Zm0,8.26A3.13,3.13,0,1,1,12,42.35,3.11,3.11,0,0,1,12.92,40.13ZM12,50.61a3.14,3.14,0,1,1,3.14,3.14A3.12,3.12,0,0,1,12,50.61Zm15.9,3.14V39.22h8.2V53.75Zm21-6.27a3.14,3.14,0,1,1-2.22.92,3.12,3.12,0,0,1,2.22-.92ZM52,42.35a3.14,3.14,0,1,1-3.14-3.13A3.14,3.14,0,0,1,52,42.35Zm0-8.27A3.13,3.13,0,1,1,48.86,31,3.15,3.15,0,0,1,52,34.08Zm2.76-9.61a2.08,2.08,0,0,1-2.71.82l-9.38-5V15.71l11.27,6.05A2,2,0,0,1,54.76,24.47Z"/>
<path d="M33.58,43.74a1,1,0,0,0-1,1v2.53a1,1,0,0,0,2,0V44.74A1,1,0,0,0,33.58,43.74Z"/>
</g>
</svg>