<?xml version="1.0" encoding="iso-8859-1"?>
<!-- Uploaded to: SVG Repo, www.svgrepo.com, Generator: SVG Repo Mixer Tools -->
<svg height="800px" width="800px" version="1.1" id="Layer_1" xmlns="http://www.w3.org/2000/svg" xmlns:xlink="http://www.w3.org/1999/xlink" 
	 viewBox="0 0 512 512" xml:space="preserve">
<path style="fill:#EAFFFF;" d="M445.217,489.739H66.783c-24.588,0-44.522-19.934-44.522-44.522V66.783
	c0-24.588,19.933-44.522,44.522-44.522h378.435c24.588,0,44.522,19.933,44.522,44.522v378.435
	C489.739,469.806,469.806,489.739,445.217,489.739z"/>
<path style="fill:#A9D5BB;" d="M456.348,100.174L456.348,100.174c0,12.295-9.966,22.261-22.261,22.261H256
	c-12.295,0-22.261-9.966-22.261-22.261l0,0c0-4.059,1.104-7.854,3.002-11.13H122.435c-12.295,0-22.261-9.966-22.261-22.261l0,0
	c0-12.295,9.966-22.261,22.261-22.261h178.087c12.295,0,22.261,9.966,22.261,22.261l0,0c0,4.059-1.104,7.854-3.002,11.13h114.306
	C446.382,77.913,456.348,87.879,456.348,100.174z"/>
<path style="fill:#C5EAD4;" d="M322.783,66.783L322.783,66.783c0,12.295-9.966,22.261-22.261,22.261H155.826
	c-12.295,0-22.261-9.966-22.261-22.261l0,0c0-12.295,9.966-22.261,22.261-22.261h144.696
	C312.816,44.522,322.783,54.488,322.783,66.783z M489.739,166.957h-55.652c-12.295,0-22.261,9.966-22.261,22.261l0,0
	c0,12.295,9.966,22.261,22.261,22.261h55.652c12.295,0,22.261-9.966,22.261-22.261l0,0C512,176.923,502.034,166.957,489.739,166.957
	z"/>
<path style="fill:#FFFF81;" d="M189.217,94.609c0,52.251-42.358,94.609-94.609,94.609S0,146.859,0,94.609S42.358,0,94.609,0
	S189.217,42.358,189.217,94.609z"/>
<path style="fill:#FFF145;" d="M144.696,94.609c0,27.662-22.424,50.087-50.087,50.087s-50.087-22.424-50.087-50.087
	s22.424-50.087,50.087-50.087S144.696,66.946,144.696,94.609z"/>
<path style="fill:#9FBA41;" d="M166.957,302.482v-24.221c0-36.883,29.9-66.783,66.783-66.783l0,0
	c36.883,0,66.783,29.9,66.783,66.783v10.217c31.583,5.301,55.652,32.752,55.652,65.842v90.898c0,36.883-29.9,66.783-66.783,66.783
	l0,0c-25.857,0-48.266-14.706-59.362-36.2c-11.288,8.731-25.437,13.939-40.812,13.939l0,0c-36.883,0-66.783-29.9-66.783-66.783
	v-57.508C122.435,336.374,141.021,311.651,166.957,302.482z"/>
<path style="fill:#606D11;" d="M345.043,468.789V512H11.13l0,0c0-95.962,96.919-161.579,186.019-125.941l126.009,50.403
	C336.376,441.75,345.043,454.552,345.043,468.789z"/>
<path style="fill:#7F932A;" d="M489.739,384v128H378.435h-33.391h-66.783v-94.609c0-27.662,22.424-50.087,50.087-50.087l0,0
	c6.328,0,12.375,1.185,17.949,3.326c6.274-33.566,35.708-58.978,71.095-58.978l0,0C457.348,311.652,489.739,344.043,489.739,384z"/>
<path style="fill:#CC9600;" d="M500.87,512H11.13l0,0c0-19.13,14.131-35.318,33.085-37.902l357.398-48.736
	C454.116,418.202,500.87,459.012,500.87,512L500.87,512z"/>
<path style="fill:#DDB900;" d="M389.565,512L389.565,512H189.217v-47.96c0-5.566,4.112-10.277,9.627-11.028l105.908-14.442
	c43.63-5.949,83.542,26.896,84.777,70.912C389.553,510.318,389.565,511.157,389.565,512z"/>
<path style="fill:#CC9600;" d="M267.13,512L267.13,512h-256l0,0c0-19.13,14.131-35.318,33.085-37.902l155.208-21.165
	c35.494-4.841,67.397,22.476,67.703,58.297C267.129,511.486,267.13,511.743,267.13,512z"/>
<path style="fill:#DDB900;" d="M133.565,512L133.565,512H11.13l0,0c0-19.13,14.131-35.318,33.085-37.902l39.602-5.4
	c26.053-3.553,49.589,16.473,49.745,42.766C133.565,511.643,133.565,511.821,133.565,512z"/>
<path style="fill:#CC9600;" d="M512,503.652c0,4.61-3.738,8.348-8.348,8.348H8.348C3.738,512,0,508.262,0,503.652
	s3.738-8.348,8.348-8.348h495.304C508.262,495.304,512,499.042,512,503.652z"/>
</svg>