<?xml version="1.0" ?>
<!-- Uploaded to: SVG Repo, www.svgrepo.com, Generator: SVG Repo Mixer Tools -->
<svg width="800px" height="800px" viewBox="0 0 64 64" xmlns="http://www.w3.org/2000/svg">
<defs>
<style>.cls-1{fill:#e5936b;}.cls-2{fill:#efc89d;}.cls-3{fill:#ebb87f;}.cls-4{fill:#f0f4f7;}.cls-5{fill:#e0e9ee;}</style>
</defs>
<g id="Fence">
<path class="cls-1" d="M10.19,43.37A2.17,2.17,0,0,0,8,45.55v4.52a2.17,2.17,0,0,0,2.19,2.18H53.81A2.17,2.17,0,0,0,56,50.07V45.55a2.17,2.17,0,0,0-2.19-2.18H10.19Z" id="path189648-6"/>
<path class="cls-1" d="M52.58,35.4h1.23A2.17,2.17,0,0,0,56,33.22V28.7a2.17,2.17,0,0,0-2.19-2.18H10.19A2.17,2.17,0,0,0,8,28.7v4.52a2.17,2.17,0,0,0,2.19,2.18H52.58Z" id="path189624-1"/>
<path class="cls-2" d="M21.58,26.52V53.39A1.57,1.57,0,0,1,20,55H13a1.57,1.57,0,0,1-1.58-1.57V25a5.47,5.47,0,0,1,1.45-3.7l2.55-2.76.17-.15Z" id="path18610-4"/>
<path class="cls-2" d="M37.08,25V53.39A1.57,1.57,0,0,1,35.51,55h-7a1.57,1.57,0,0,1-1.57-1.57V25a5.47,5.47,0,0,1,1.45-3.7l2.55-2.76a1.49,1.49,0,0,1,2.16,0l2.55,2.76A5.47,5.47,0,0,1,37.08,25Z" id="path189135-4"/>
<path class="cls-2" d="M51.22,21.42A5.5,5.5,0,0,1,52.58,25h0V53.39A1.57,1.57,0,0,1,51,55H44a1.57,1.57,0,0,1-1.57-1.57V25a5.45,5.45,0,0,1,1.36-3.6Z" id="path189137-3"/>
<path class="cls-3" d="M48.26,21.42A5.43,5.43,0,0,1,49.62,25V53.39A1.57,1.57,0,0,1,48.05,55h3a1.57,1.57,0,0,0,1.58-1.57V25a5.48,5.48,0,0,0-1.36-3.6Z" id="path293809"/>
<path class="cls-3" d="M15.59,18.41l-.16.15-1.49,1.61a19.39,19.39,0,0,1,3.84,3.58,10.57,10.57,0,0,1,.84,2.77V53.39A1.57,1.57,0,0,1,17.05,55h3a1.57,1.57,0,0,0,1.57-1.57V26.52Z" id="path293807"/>
<path class="cls-3" d="M30.92,18.57l-.4.43,2.15,2.32A5.47,5.47,0,0,1,34.12,25V53.39A1.57,1.57,0,0,1,32.55,55h3a1.57,1.57,0,0,0,1.57-1.57V25a5.47,5.47,0,0,0-1.45-3.7l-2.55-2.75A1.47,1.47,0,0,0,30.92,18.57Z" id="path291646"/>
<path class="cls-4" d="M47.5,16.11A3.43,3.43,0,0,0,45,17.21L43.67,18.6a2,2,0,0,0,2.23,3.2v2.84a1.36,1.36,0,1,0,2.72,0V21.51a2,2,0,0,0,2.71-2.91L50,17.21A3.45,3.45,0,0,0,47.5,16.11Z" id="path6729-2"/>
<path class="cls-4" d="M32.48,35.52A1.43,1.43,0,0,1,33.91,37v5.28a1.43,1.43,0,0,1-2.86,0V37A1.43,1.43,0,0,1,32.48,35.52Z" id="rect7347-0"/>
<path class="cls-4" d="M16.22,17.1a2,2,0,0,0-.11,2.82l2.55,2.76a4.16,4.16,0,0,1,.83,1.84,2.23,2.23,0,0,0,2.09,2h5.34v5.21a1.46,1.46,0,1,0,2.92,0V25.22a3.09,3.09,0,0,1,.81-2.08l2.43-2.63a1.43,1.43,0,0,0,0-1.92v0a1.47,1.47,0,0,0-2.16,0l-2.55,2.75A5.47,5.47,0,0,0,26.92,25v-.5a2,2,0,0,0-2-2H23.14A7.4,7.4,0,0,0,21.6,20l-2.55-2.75A2,2,0,0,0,16.22,17.1Z" id="path24976-6"/>
<path class="cls-4" d="M16.29,29a1.46,1.46,0,0,1,1.46,1.46v3.38a1.46,1.46,0,0,1-2.92,0V30.48A1.46,1.46,0,0,1,16.29,29Z" id="rect8621-8"/>
<path class="cls-5" d="M23.78,22.52v4h3.14v-2a2,2,0,0,0-2-2Z" id="rect294109"/>
<path class="cls-5" d="M47.5,16.11a3.59,3.59,0,0,0-1.08.17,3.32,3.32,0,0,1,1.46.93l1.28,1.39a2,2,0,0,1-.1,2.82,2.34,2.34,0,0,1-.27.2,2,2,0,0,0,2.54-3L50,17.21A3.45,3.45,0,0,0,47.5,16.11Z" id="path297984"/>
<circle cx="20.7" cy="11.04" r="1.25"/>
<path d="M42.43,15.12l-.31-.18a1,1,0,0,0-1,1.73l.31.18a1,1,0,0,0,1.37-.37A1,1,0,0,0,42.43,15.12Z"/>
<path d="M37.89,12.49l-.31-.17a1,1,0,0,0-1.36.36,1,1,0,0,0,.36,1.37l.31.18a1,1,0,0,0,1.36-.37A1,1,0,0,0,37.89,12.49Z"/>
<path d="M36.89,14.94l-.31.18a1,1,0,0,0,.5,1.86,1,1,0,0,0,.5-.13l.31-.18a1,1,0,0,0-1-1.73Z"/>
<path d="M42.8,12.68a1,1,0,0,0-1.37-.36l-.31.17a1,1,0,0,0-.36,1.37,1,1,0,0,0,1.36.37l.31-.18A1,1,0,0,0,42.8,12.68Z"/>
<path d="M39.51,16a1,1,0,0,0-1,1v.35a1,1,0,1,0,2,0V17A1,1,0,0,0,39.51,16Z"/>
<path d="M40.51,11.78a1,1,0,0,0-2,0v.36a1,1,0,0,0,2,0Z"/>
<path d="M10.19,53.25h.23v.14A2.58,2.58,0,0,0,13,56h7a2.57,2.57,0,0,0,2.57-2.57v-.14h3.34v.14A2.58,2.58,0,0,0,28.49,56h7a2.58,2.58,0,0,0,2.57-2.57v-.14h3.34v.14A2.57,2.57,0,0,0,44,56h7a2.58,2.58,0,0,0,2.58-2.57v-.14h.23A3.19,3.19,0,0,0,57,50.07V45.55a3.19,3.19,0,0,0-3.19-3.18h-.23v-6h.23A3.19,3.19,0,0,0,57,33.22V28.7a3.19,3.19,0,0,0-3.19-3.18h-.23V25a6.46,6.46,0,0,0-1.12-3.59,3,3,0,0,0-.4-3.51l-1.28-1.39a4.5,4.5,0,0,0-6.56,0l-1.29,1.39a3,3,0,0,0-.79,2.15,2.91,2.91,0,0,0,.4,1.36A6.38,6.38,0,0,0,41.42,25v.5H38.08V25a6.42,6.42,0,0,0-1.72-4.38l-2.55-2.75h0a2.55,2.55,0,0,0-3.62,0l-2.55,2.75a6.45,6.45,0,0,0-1,1.43,2.94,2.94,0,0,0-1.72-.55h-1.1a8.58,8.58,0,0,0-1.49-2.24l-2.55-2.75a3,3,0,0,0-4.24-.17,3,3,0,0,0-.89,1.57l-2.51,2.71A6.42,6.42,0,0,0,10.42,25v.5h-.23A3.19,3.19,0,0,0,7,28.7v4.52a3.19,3.19,0,0,0,3.19,3.18h.23v6h-.23A3.19,3.19,0,0,0,7,45.55v4.52A3.19,3.19,0,0,0,10.19,53.25ZM25.92,27.52V34.4H22.58V27.52ZM22.58,36.4h3.34v6H22.58Zm0,14.85V44.37h3.34v6.88Zm18.84-8.88H38.08v-6h3.34Zm-3.34,8.88V44.37h3.34v6.88ZM51,54H44a.56.56,0,0,1-.57-.57V25a4.45,4.45,0,0,1,.63-2.28,2.84,2.84,0,0,0,.85.2v1.7a2.36,2.36,0,1,0,4.72,0v-1.7a3,3,0,0,0,1.33-.2A4.42,4.42,0,0,1,51.58,25V52.25h0v1.14A.57.57,0,0,1,51,54Zm2.81-9.59A1.18,1.18,0,0,1,55,45.55v4.52a1.18,1.18,0,0,1-1.19,1.18h-.23V44.37Zm0-16.85A1.18,1.18,0,0,1,55,28.7v4.52a1.18,1.18,0,0,1-1.19,1.18h-.23V27.52ZM44.4,19.27l1.29-1.38a2.58,2.58,0,0,1,3.62,0l1.28,1.38a1,1,0,0,1-1.35,1.46,1,1,0,0,0-1.06-.12,1,1,0,0,0-.56.9v3.13a.36.36,0,1,1-.72,0V21.8a1,1,0,0,0-1.38-.93,1,1,0,0,1-1.06-.18h0A1,1,0,0,1,44.4,19.27Zm-3,8.25V34.4H38.08V27.52ZM36.08,25V53.39a.56.56,0,0,1-.57.57h-7a.56.56,0,0,1-.57-.57V34.15a3.42,3.42,0,0,0,.46,0,2.46,2.46,0,0,0,2.46-2.46V25.22a2.07,2.07,0,0,1,.55-1.4C33.1,22,33.66,21.4,34,21l.93,1A4.41,4.41,0,0,1,36.08,25Zm-4.42-5.78a.46.46,0,0,1,.68,0h0a.42.42,0,0,1,0,.59l-2.42,2.63a4.06,4.06,0,0,0-1.08,2.76v6.51a.46.46,0,1,1-.92,0V25a4.41,4.41,0,0,1,1.19-3ZM18.31,17.89l2.55,2.75a6.28,6.28,0,0,1,1.34,2.21,1,1,0,0,0,.94.67h1.78a1,1,0,0,1,1,1v1H21.58c-.62,0-1-.61-1.1-1.17A5.25,5.25,0,0,0,19.4,22l-2.56-2.76a1,1,0,0,1,1.47-1.35ZM13.61,22l1.56-1.68a1.86,1.86,0,0,0,.21.28l2.49,2.68a3.12,3.12,0,0,1,.63,1.41,3.35,3.35,0,0,0,2.08,2.64V53.39A.56.56,0,0,1,20,54H13a.57.57,0,0,1-.58-.57V52.26h0V43.37h0v-8h0V26.52h0V25A4.41,4.41,0,0,1,13.61,22ZM10.19,34.4A1.18,1.18,0,0,1,9,33.22V28.7a1.18,1.18,0,0,1,1.19-1.18h.23V34.4ZM9,45.55a1.18,1.18,0,0,1,1.19-1.18h.23v6.88h-.23A1.18,1.18,0,0,1,9,50.07Z"/>
<circle cx="47.5" cy="30.96" r="1.25"/>
<circle cx="16.5" cy="47.81" r="1.25"/>
<circle cx="32" cy="47.81" r="1.25"/>
<circle cx="47.5" cy="47.81" r="1.25"/>
<path d="M32.48,34.52A2.43,2.43,0,0,0,30.05,37v5.28a2.43,2.43,0,0,0,4.86,0V37A2.43,2.43,0,0,0,32.48,34.52Zm.43,7.71a.43.43,0,0,1-.86,0V37a.43.43,0,1,1,.86,0Z"/>
<path d="M16.29,36.32a2.46,2.46,0,0,0,2.46-2.46V30.48a2.46,2.46,0,0,0-4.92,0v3.38A2.46,2.46,0,0,0,16.29,36.32Zm-.46-5.84a.46.46,0,0,1,.92,0v3.38a.46.46,0,1,1-.92,0Z"/>
<circle cx="51.08" cy="11.93" r="1.25"/>
<path d="M17.08,12.37l-.31-.18a1,1,0,0,0-1,1.74l.31.17a1,1,0,0,0,.5.14,1,1,0,0,0,.5-1.87Z"/>
<path d="M12.54,9.75l-.31-.18a1,1,0,0,0-1.36.37,1,1,0,0,0,.36,1.36l.3.18a1,1,0,0,0,.5.14,1,1,0,0,0,.87-.5A1,1,0,0,0,12.54,9.75Z"/>
<path d="M11.53,12.2l-.3.17a1,1,0,0,0,.5,1.87,1,1,0,0,0,.5-.14l.31-.17a1,1,0,1,0-1-1.73Z"/>
<path d="M17.44,9.94a1,1,0,0,0-1.36-.37l-.31.18a1,1,0,0,0,.5,1.87,1,1,0,0,0,.5-.14l.31-.17A1,1,0,0,0,17.44,9.94Z"/>
<path d="M14.15,15.64h0a1,1,0,0,0,1-1v-.35a1,1,0,0,0-1-1h0a1,1,0,0,0-1,1v.36A1,1,0,0,0,14.15,15.64Z"/>
<path d="M14.15,10.39a1,1,0,0,0,1-1V9a1,1,0,0,0-2,0v.35A1,1,0,0,0,14.15,10.39Z"/>
</g>
</svg>